<?xml version="1.0" encoding="UTF-8"?>
<svg width="5976px" height="2550px" viewBox="0 0 5976 2550" version="1.1" xmlns="http://www.w3.org/2000/svg" xmlns:xlink="http://www.w3.org/1999/xlink">
    <!-- Generator: Sketch 61.2 (89653) - https://sketch.com -->
    <title>Artboard Copy 4</title>
    <desc>Created with Sketch.</desc>
    <g id="Artboard-Copy-4" stroke="none" stroke-width="1" fill="none" fill-rule="evenodd">
        <g id="Group-2" transform="translate(194.000000, 98.000000)">
            <g id="Group">
                <g id="vegetables" transform="translate(933.000000, 1494.000000)" fill="#FFFFFF" fill-rule="nonzero">
                    <path d="M456.3,13.159 C435.495,-7.645 400.583,-3.14 385.694,22.15 C385.657,22.213 337.855,106.202 337.855,106.202 C305.867,91.671 268.695,101.336 247.633,128.416 L10.793,432.922 C-4.341,452.38 -2.609,480.2 14.821,497.631 C32.271,515.08 60.091,516.779 79.53,501.659 L384.037,264.82 C406.556,247.306 417.73,217.965 411.077,188.902 L451.309,165.185 C476.652,150.266 481.05,115.332 460.298,94.58 C456.535,90.817 452.222,87.807 447.542,85.615 L456.298,76.798 C473.844,59.253 473.845,30.705 456.3,13.159 Z M365.621,241.141 L286.534,302.653 L248.168,264.286 C242.311,258.428 232.814,258.428 226.955,264.286 C221.097,270.143 221.097,279.641 226.955,285.499 L262.67,321.214 L61.114,477.98 C53.572,483.845 42.791,483.173 36.036,476.419 C29.28,469.663 28.61,458.882 34.475,451.341 L135.556,321.38 L163.316,349.14 C169.173,354.998 178.671,354.999 184.529,349.14 C190.387,343.282 190.387,333.785 184.529,327.927 L154.118,297.516 L246.926,178.191 L290.596,221.861 C296.453,227.719 305.951,227.72 311.809,221.861 C317.667,216.003 317.667,206.506 311.809,200.648 L265.488,154.327 L271.316,146.834 C287.9,125.512 319.498,123.484 338.657,142.642 C353.433,157.419 355.082,159.068 369.816,173.802 C388.917,192.904 387.005,224.51 365.621,241.141 Z M364.803,126.364 L362.314,123.875 L411.591,37.292 C416.6,28.906 428.197,27.484 435.086,34.373 C440.935,40.222 440.935,49.738 435.049,55.624 L364.803,126.364 Z M439.086,137.008 C436.689,139.405 438.149,137.933 398.589,161.442 C393.665,154.686 389.618,151.335 386.016,147.578 C388.674,144.926 375.397,158.289 417.873,115.795 C423.737,109.932 433.223,109.932 439.086,115.795 C444.935,121.642 444.935,131.159 439.086,137.008 L439.086,137.008 Z" id="Shape"></path>
                </g>
                <g id="animal" transform="translate(1660.000000, 915.000000)" fill="#FFFFFF" fill-rule="nonzero">
                    <circle id="Oval" cx="104.971" cy="227" r="15"></circle>
                    <circle id="Oval" cx="224.971" cy="227" r="15"></circle>
                    <path d="M324.391,356.585 C302.772,318.63 300,271.472 300,234.629 L300,225 C300,193.461 289.126,164.417 270.935,141.411 C288.776,130.659 300,111.338 300,90 C300,50.785 262.91,22.538 226.087,31.713 C212.185,12.098 189.453,-2.84217094e-14 165,-2.84217094e-14 C140.548,-2.84217094e-14 117.816,12.099 103.913,31.713 C67.047,22.526 30,50.825 30,90 C30,111.336 41.222,130.658 59.065,141.411 C40.874,164.417 30,193.461 30,225 L30,234.629 C30,271.472 27.228,318.629 5.608,356.587 C-4.694,374.678 -1.754,397.579 22.413,416.321 C32.163,423.882 44.777,430.433 60.004,435.867 C60.001,436.24 60,436.617 60,437 C60,478.355 93.645,512 135,512 C145.354,512 155.412,509.825 165,505.523 C174.59,509.825 184.646,512 195,512 C236.355,512 270,478.355 270,437 C270,436.617 269.999,436.24 269.996,435.867 C285.223,430.433 297.837,423.882 307.587,416.321 C331.755,397.578 334.693,374.678 324.391,356.585 Z M103.634,63.492 C111.229,67.417 120.598,64.203 124.162,56.399 C131.489,40.362 147.519,30 165,30 C182.482,30 198.512,40.362 205.838,56.398 C209.391,64.177 218.743,67.43 226.366,63.492 C247.168,52.745 270,68.405 270,90 C270,103.692 260.998,115.254 248.317,118.846 C225.355,100.785 196.413,90 165,90 C133.587,90 104.645,100.785 81.683,118.846 C69.002,115.254 60,103.692 60,90 C60,68.45 82.787,52.721 103.634,63.492 L103.634,63.492 Z M195,482 C187.267,482 179.712,479.885 172.546,475.714 C167.882,472.999 162.117,473 157.453,475.714 C150.289,479.885 142.734,482 135,482 C110.187,482 90,461.813 90,437 C90,425.114 90,424.65 119.595,375.728 C122.246,371.345 125.119,366.595 128.23,361.443 L154.394,387.607 C160.251,393.465 169.749,393.466 175.607,387.607 L201.771,361.443 C204.882,366.597 207.755,371.347 210.407,375.731 C240,424.651 240,425.115 240,437 C240,461.813 219.813,482 195,482 L195,482 Z M126.213,317 L165,278.213 L203.787,317 L165,355.787 L126.213,317 Z M262.948,406.478 C256.779,393.952 245.405,375.74 223.625,339.588 L235.606,327.607 C241.464,321.749 241.464,312.252 235.606,306.394 L175.606,246.394 C169.749,240.536 160.251,240.536 154.393,246.394 L94.393,306.394 C88.535,312.252 88.535,321.749 94.393,327.607 L106.374,339.588 C84.938,375.17 73.264,393.863 67.051,406.478 C41.702,396.815 30,384.92 30,377 C30,375.236 30.549,373.415 31.678,371.433 C56.781,327.358 60,275.171 60,234.629 L60,225 C60,167.103 107.103,120 165,120 C222.897,120 270,167.103 270,225 L270,234.629 C270,275.171 273.219,327.358 298.321,371.431 C299.451,373.414 300,375.236 300,376.999 C300,384.92 288.298,396.815 262.948,406.478 Z" id="Shape"></path>
                </g>
                <g id="animal-(2)" transform="translate(335.000000, 918.000000)" fill="#FFFFFF" fill-rule="nonzero">
                    <circle id="Oval" cx="225.971" cy="437" r="15"></circle>
                    <circle id="Oval" cx="315.971" cy="227" r="15"></circle>
                    <circle id="Oval" cx="285.971" cy="437" r="15"></circle>
                    <circle id="Oval" cx="195.971" cy="227" r="15"></circle>
                    <path d="M437,92 L435.959,92 C445.397,79.456 451,63.871 451,47 L451,15 C451,6.716 444.284,0 436,0 C427.716,0 421,6.716 421,15 L421,47 C421,71.813 400.813,92 376,92 L136,92 C111.187,92 91,71.813 91,47 L91,15 C91,6.716 84.284,0 76,0 C67.716,0 61,6.716 61,15 L61,47 C61,63.871 66.603,79.456 76.041,92 L75,92 C33.645,92 0,125.645 0,167 C0,175.284 6.716,182 15,182 L76,182 C92.871,182 108.456,176.397 121,166.959 L121,227 C121,260.582 131.356,292.982 151,321.025 L151,467 C151,491.813 171.187,512 196,512 L316,512 C340.813,512 361,491.813 361,467 C361,459.517 361,325.867 361,321.025 C380.644,292.983 391,260.582 391,227 L391,166.959 C403.544,176.397 419.129,182 436,182 L497,182 C505.284,182 512,175.284 512,167 C512,125.645 478.355,92 437,92 Z M76,152 L32.57,152 C38.761,134.539 55.444,122 75,122 L118.43,122 C112.239,139.461 95.556,152 76,152 Z M331,467 C331,475.271 324.271,482 316,482 L196,482 C187.729,482 181,475.271 181,467 C181,459.741 181,414.307 181,407 C181,398.729 187.729,392 196,392 L316,392 C324.271,392 331,398.729 331,407 L331,467 Z M361,227 C361,255.731 351.653,283.47 333.969,307.218 C332.041,309.807 331,312.948 331,316.176 L331,364.58 C326.305,362.915 321.258,362 316,362 L196,362 C190.742,362 185.695,362.915 181,364.58 L181,316.176 C181,312.948 179.958,309.806 178.031,307.218 C160.347,283.47 151,255.731 151,227 L151,122 L361,122 L361,227 Z M436,152 C416.444,152 399.761,139.461 393.57,122 L437,122 C456.556,122 473.239,134.539 479.43,152 L436,152 Z" id="Shape"></path>
                </g>
                <g id="fruit" transform="translate(1013.000000, 301.000000)" fill="#FFFFFF" fill-rule="nonzero">
                    <path d="M306.437,82.281 L308.257,81.08 C320.013,73.324 315.502,55.012 301.465,53.631 L235.881,47.182 L207.431,6.41 C201.47,-2.132 188.796,-2.142 182.828,6.41 L154.377,47.182 L88.794,53.631 C74.778,55.01 70.228,73.313 82.002,81.08 L83.714,82.209 C24.038,109.567 -0.003,162.14 -0.003,226.993 C-0.003,343.483 81.249,511.993 194.997,511.993 C309.393,511.993 389.997,342.432 389.997,226.993 C389.997,162.068 365.904,109.616 306.437,82.281 Z M164.191,76.362 C168.556,75.932 172.515,73.614 175.024,70.018 L195.129,41.206 L215.234,70.018 C217.744,73.615 221.702,75.933 226.067,76.362 L256.408,79.345 L239.304,90.63 C233.975,94.146 231.455,100.648 233.024,106.836 L238.5,128.443 L200.159,114.801 C196.911,113.644 193.354,113.643 190.102,114.801 L151.761,128.443 L157.237,106.836 C158.805,100.648 156.285,94.146 150.957,90.63 L133.85,79.345 L164.191,76.362 Z M194.997,481.994 C102.511,481.994 29.997,330.003 29.997,226.994 C29.997,161.103 57.655,120.318 114.473,102.502 L125.536,109.801 L115.777,148.31 C112.837,159.91 124.052,170.143 135.346,166.127 L195.13,144.856 L254.914,166.127 C266.199,170.141 277.424,159.918 274.482,148.31 L264.723,109.801 L275.701,102.559 C332.398,120.405 359.998,161.171 359.998,226.995 C359.998,327.807 288.731,481.994 194.997,481.994 L194.997,481.994 Z" id="Shape"></path>
                    <path d="M74.997,181.994 C66.713,181.994 59.997,188.71 59.997,196.994 L59.997,226.994 C59.997,235.278 66.713,241.994 74.997,241.994 C83.281,241.994 89.997,235.278 89.997,226.994 L89.997,196.994 C89.997,188.71 83.281,181.994 74.997,181.994 Z" id="Path"></path>
                    <path d="M194.997,181.994 C186.713,181.994 179.997,188.71 179.997,196.994 L179.997,226.994 C179.997,235.278 186.713,241.994 194.997,241.994 C203.281,241.994 209.997,235.278 209.997,226.994 L209.997,196.994 C209.997,188.71 203.281,181.994 194.997,181.994 Z" id="Path"></path>
                    <path d="M314.997,181.994 C306.713,181.994 299.997,188.71 299.997,196.994 L299.997,226.994 C299.997,235.278 306.713,241.994 314.997,241.994 C323.281,241.994 329.997,235.278 329.997,226.994 L329.997,196.994 C329.997,188.71 323.281,181.994 314.997,181.994 Z" id="Path"></path>
                    <path d="M134.997,271.994 C126.713,271.994 119.997,278.71 119.997,286.994 L119.997,316.994 C119.997,325.278 126.713,331.994 134.997,331.994 C143.281,331.994 149.997,325.278 149.997,316.994 L149.997,286.994 C149.997,278.71 143.281,271.994 134.997,271.994 Z" id="Path"></path>
                    <path d="M194.997,361.994 C186.713,361.994 179.997,368.71 179.997,376.994 L179.997,406.994 C179.997,415.278 186.713,421.994 194.997,421.994 C203.281,421.994 209.997,415.278 209.997,406.994 L209.997,376.994 C209.997,368.71 203.281,361.994 194.997,361.994 Z" id="Path"></path>
                    <path d="M254.997,271.994 C246.713,271.994 239.997,278.71 239.997,286.994 L239.997,316.994 C239.997,325.278 246.713,331.994 254.997,331.994 C263.281,331.994 269.997,325.278 269.997,316.994 L269.997,286.994 C269.997,278.71 263.281,271.994 254.997,271.994 Z" id="Path"></path>
                </g>
                <line x1="590.5" y1="557.5" x2="1824.5" y2="1791.5" id="Line" stroke="#FFFFFF" stroke-width="20" stroke-linecap="square"></line>
                <line x1="590.5" y1="557.5" x2="1824.5" y2="1791.5" id="Line-Copy" stroke="#FFFFFF" stroke-width="20" stroke-linecap="square" transform="translate(1207.500000, 1174.500000) scale(-1, 1) translate(-1207.500000, -1174.500000) "></line>
                <circle id="Oval" stroke="#FFFFFF" stroke-width="40" cx="1170.5" cy="1170.5" r="1170.5"></circle>
            </g>
            <g id="Group" transform="translate(2655.000000, 256.000000)" fill="#FFFFFF" font-family="Norwester-Regular, Norwester" font-style="condensed" font-weight="normal">
                <text id="MyLocal" font-size="750" letter-spacing="5.35714294">
                    <tspan x="0" y="656">MyLocal</tspan>
                </text>
                <text id="FOOD" font-size="999" letter-spacing="280">
                    <tspan x="0" y="1669">FOOD</tspan>
                </text>
            </g>
        </g>
    </g>
</svg>