<?xml version="1.0" encoding="UTF-8"?>
<svg width="2722px" height="4148px" viewBox="0 0 2722 4148" version="1.1" xmlns="http://www.w3.org/2000/svg" xmlns:xlink="http://www.w3.org/1999/xlink">
    <!-- Generator: Sketch 61.2 (89653) - https://sketch.com -->
    <title>Group 2</title>
    <desc>Created with Sketch.</desc>
    <g id="Page-1" stroke="none" stroke-width="1" fill="none" fill-rule="evenodd">
        <g id="Artboard-Copy-3" transform="translate(-1650.000000, -343.000000)">
            <g id="Group-2" transform="translate(1650.000000, 363.000000)">
                <g id="Group" transform="translate(168.000000, 0.000000)">
                    <g id="vegetables" transform="translate(933.000000, 1494.000000)" fill="#FFFFFF" fill-rule="nonzero">
                        <path d="M456.3,13.159 C435.495,-7.645 400.583,-3.14 385.694,22.15 C385.657,22.213 337.855,106.202 337.855,106.202 C305.867,91.671 268.695,101.336 247.633,128.416 L10.793,432.922 C-4.341,452.38 -2.609,480.2 14.821,497.631 C32.271,515.08 60.091,516.779 79.53,501.659 L384.037,264.82 C406.556,247.306 417.73,217.965 411.077,188.902 L451.309,165.185 C476.652,150.266 481.05,115.332 460.298,94.58 C456.535,90.817 452.222,87.807 447.542,85.615 L456.298,76.798 C473.844,59.253 473.845,30.705 456.3,13.159 Z M365.621,241.141 L286.534,302.653 L248.168,264.286 C242.311,258.428 232.814,258.428 226.955,264.286 C221.097,270.143 221.097,279.641 226.955,285.499 L262.67,321.214 L61.114,477.98 C53.572,483.845 42.791,483.173 36.036,476.419 C29.28,469.663 28.61,458.882 34.475,451.341 L135.556,321.38 L163.316,349.14 C169.173,354.998 178.671,354.999 184.529,349.14 C190.387,343.282 190.387,333.785 184.529,327.927 L154.118,297.516 L246.926,178.191 L290.596,221.861 C296.453,227.719 305.951,227.72 311.809,221.861 C317.667,216.003 317.667,206.506 311.809,200.648 L265.488,154.327 L271.316,146.834 C287.9,125.512 319.498,123.484 338.657,142.642 C353.433,157.419 355.082,159.068 369.816,173.802 C388.917,192.904 387.005,224.51 365.621,241.141 Z M364.803,126.364 L362.314,123.875 L411.591,37.292 C416.6,28.906 428.197,27.484 435.086,34.373 C440.935,40.222 440.935,49.738 435.049,55.624 L364.803,126.364 Z M439.086,137.008 C436.689,139.405 438.149,137.933 398.589,161.442 C393.665,154.686 389.618,151.335 386.016,147.578 C388.674,144.926 375.397,158.289 417.873,115.795 C423.737,109.932 433.223,109.932 439.086,115.795 C444.935,121.642 444.935,131.159 439.086,137.008 L439.086,137.008 Z" id="Shape"></path>
                    </g>
                    <g id="animal" transform="translate(1660.000000, 915.000000)" fill="#FFFFFF" fill-rule="nonzero">
                        <circle id="Oval" cx="104.971" cy="227" r="15"></circle>
                        <circle id="Oval" cx="224.971" cy="227" r="15"></circle>
                        <path d="M324.391,356.585 C302.772,318.63 300,271.472 300,234.629 L300,225 C300,193.461 289.126,164.417 270.935,141.411 C288.776,130.659 300,111.338 300,90 C300,50.785 262.91,22.538 226.087,31.713 C212.185,12.098 189.453,-2.84217094e-14 165,-2.84217094e-14 C140.548,-2.84217094e-14 117.816,12.099 103.913,31.713 C67.047,22.526 30,50.825 30,90 C30,111.336 41.222,130.658 59.065,141.411 C40.874,164.417 30,193.461 30,225 L30,234.629 C30,271.472 27.228,318.629 5.608,356.587 C-4.694,374.678 -1.754,397.579 22.413,416.321 C32.163,423.882 44.777,430.433 60.004,435.867 C60.001,436.24 60,436.617 60,437 C60,478.355 93.645,512 135,512 C145.354,512 155.412,509.825 165,505.523 C174.59,509.825 184.646,512 195,512 C236.355,512 270,478.355 270,437 C270,436.617 269.999,436.24 269.996,435.867 C285.223,430.433 297.837,423.882 307.587,416.321 C331.755,397.578 334.693,374.678 324.391,356.585 Z M103.634,63.492 C111.229,67.417 120.598,64.203 124.162,56.399 C131.489,40.362 147.519,30 165,30 C182.482,30 198.512,40.362 205.838,56.398 C209.391,64.177 218.743,67.43 226.366,63.492 C247.168,52.745 270,68.405 270,90 C270,103.692 260.998,115.254 248.317,118.846 C225.355,100.785 196.413,90 165,90 C133.587,90 104.645,100.785 81.683,118.846 C69.002,115.254 60,103.692 60,90 C60,68.45 82.787,52.721 103.634,63.492 L103.634,63.492 Z M195,482 C187.267,482 179.712,479.885 172.546,475.714 C167.882,472.999 162.117,473 157.453,475.714 C150.289,479.885 142.734,482 135,482 C110.187,482 90,461.813 90,437 C90,425.114 90,424.65 119.595,375.728 C122.246,371.345 125.119,366.595 128.23,361.443 L154.394,387.607 C160.251,393.465 169.749,393.466 175.607,387.607 L201.771,361.443 C204.882,366.597 207.755,371.347 210.407,375.731 C240,424.651 240,425.115 240,437 C240,461.813 219.813,482 195,482 L195,482 Z M126.213,317 L165,278.213 L203.787,317 L165,355.787 L126.213,317 Z M262.948,406.478 C256.779,393.952 245.405,375.74 223.625,339.588 L235.606,327.607 C241.464,321.749 241.464,312.252 235.606,306.394 L175.606,246.394 C169.749,240.536 160.251,240.536 154.393,246.394 L94.393,306.394 C88.535,312.252 88.535,321.749 94.393,327.607 L106.374,339.588 C84.938,375.17 73.264,393.863 67.051,406.478 C41.702,396.815 30,384.92 30,377 C30,375.236 30.549,373.415 31.678,371.433 C56.781,327.358 60,275.171 60,234.629 L60,225 C60,167.103 107.103,120 165,120 C222.897,120 270,167.103 270,225 L270,234.629 C270,275.171 273.219,327.358 298.321,371.431 C299.451,373.414 300,375.236 300,376.999 C300,384.92 288.298,396.815 262.948,406.478 Z" id="Shape"></path>
                    </g>
                    <g id="animal-(2)" transform="translate(335.000000, 918.000000)" fill="#FFFFFF" fill-rule="nonzero">
                        <circle id="Oval" cx="225.971" cy="437" r="15"></circle>
                        <circle id="Oval" cx="315.971" cy="227" r="15"></circle>
                        <circle id="Oval" cx="285.971" cy="437" r="15"></circle>
                        <circle id="Oval" cx="195.971" cy="227" r="15"></circle>
                        <path d="M437,92 L435.959,92 C445.397,79.456 451,63.871 451,47 L451,15 C451,6.716 444.284,0 436,0 C427.716,0 421,6.716 421,15 L421,47 C421,71.813 400.813,92 376,92 L136,92 C111.187,92 91,71.813 91,47 L91,15 C91,6.716 84.284,0 76,0 C67.716,0 61,6.716 61,15 L61,47 C61,63.871 66.603,79.456 76.041,92 L75,92 C33.645,92 0,125.645 0,167 C0,175.284 6.716,182 15,182 L76,182 C92.871,182 108.456,176.397 121,166.959 L121,227 C121,260.582 131.356,292.982 151,321.025 L151,467 C151,491.813 171.187,512 196,512 L316,512 C340.813,512 361,491.813 361,467 C361,459.517 361,325.867 361,321.025 C380.644,292.983 391,260.582 391,227 L391,166.959 C403.544,176.397 419.129,182 436,182 L497,182 C505.284,182 512,175.284 512,167 C512,125.645 478.355,92 437,92 Z M76,152 L32.57,152 C38.761,134.539 55.444,122 75,122 L118.43,122 C112.239,139.461 95.556,152 76,152 Z M331,467 C331,475.271 324.271,482 316,482 L196,482 C187.729,482 181,475.271 181,467 C181,459.741 181,414.307 181,407 C181,398.729 187.729,392 196,392 L316,392 C324.271,392 331,398.729 331,407 L331,467 Z M361,227 C361,255.731 351.653,283.47 333.969,307.218 C332.041,309.807 331,312.948 331,316.176 L331,364.58 C326.305,362.915 321.258,362 316,362 L196,362 C190.742,362 185.695,362.915 181,364.58 L181,316.176 C181,312.948 179.958,309.806 178.031,307.218 C160.347,283.47 151,255.731 151,227 L151,122 L361,122 L361,227 Z M436,152 C416.444,152 399.761,139.461 393.57,122 L437,122 C456.556,122 473.239,134.539 479.43,152 L436,152 Z" id="Shape"></path>
                    </g>
                    <g id="fruit" transform="translate(1013.000000, 301.000000)" fill="#FFFFFF" fill-rule="nonzero">
                        <path d="M306.437,82.281 L308.257,81.08 C320.013,73.324 315.502,55.012 301.465,53.631 L235.881,47.182 L207.431,6.41 C201.47,-2.132 188.796,-2.142 182.828,6.41 L154.377,47.182 L88.794,53.631 C74.778,55.01 70.228,73.313 82.002,81.08 L83.714,82.209 C24.038,109.567 -0.003,162.14 -0.003,226.993 C-0.003,343.483 81.249,511.993 194.997,511.993 C309.393,511.993 389.997,342.432 389.997,226.993 C389.997,162.068 365.904,109.616 306.437,82.281 Z M164.191,76.362 C168.556,75.932 172.515,73.614 175.024,70.018 L195.129,41.206 L215.234,70.018 C217.744,73.615 221.702,75.933 226.067,76.362 L256.408,79.345 L239.304,90.63 C233.975,94.146 231.455,100.648 233.024,106.836 L238.5,128.443 L200.159,114.801 C196.911,113.644 193.354,113.643 190.102,114.801 L151.761,128.443 L157.237,106.836 C158.805,100.648 156.285,94.146 150.957,90.63 L133.85,79.345 L164.191,76.362 Z M194.997,481.994 C102.511,481.994 29.997,330.003 29.997,226.994 C29.997,161.103 57.655,120.318 114.473,102.502 L125.536,109.801 L115.777,148.31 C112.837,159.91 124.052,170.143 135.346,166.127 L195.13,144.856 L254.914,166.127 C266.199,170.141 277.424,159.918 274.482,148.31 L264.723,109.801 L275.701,102.559 C332.398,120.405 359.998,161.171 359.998,226.995 C359.998,327.807 288.731,481.994 194.997,481.994 L194.997,481.994 Z" id="Shape"></path>
                        <path d="M74.997,181.994 C66.713,181.994 59.997,188.71 59.997,196.994 L59.997,226.994 C59.997,235.278 66.713,241.994 74.997,241.994 C83.281,241.994 89.997,235.278 89.997,226.994 L89.997,196.994 C89.997,188.71 83.281,181.994 74.997,181.994 Z" id="Path"></path>
                        <path d="M194.997,181.994 C186.713,181.994 179.997,188.71 179.997,196.994 L179.997,226.994 C179.997,235.278 186.713,241.994 194.997,241.994 C203.281,241.994 209.997,235.278 209.997,226.994 L209.997,196.994 C209.997,188.71 203.281,181.994 194.997,181.994 Z" id="Path"></path>
                        <path d="M314.997,181.994 C306.713,181.994 299.997,188.71 299.997,196.994 L299.997,226.994 C299.997,235.278 306.713,241.994 314.997,241.994 C323.281,241.994 329.997,235.278 329.997,226.994 L329.997,196.994 C329.997,188.71 323.281,181.994 314.997,181.994 Z" id="Path"></path>
                        <path d="M134.997,271.994 C126.713,271.994 119.997,278.71 119.997,286.994 L119.997,316.994 C119.997,325.278 126.713,331.994 134.997,331.994 C143.281,331.994 149.997,325.278 149.997,316.994 L149.997,286.994 C149.997,278.71 143.281,271.994 134.997,271.994 Z" id="Path"></path>
                        <path d="M194.997,361.994 C186.713,361.994 179.997,368.71 179.997,376.994 L179.997,406.994 C179.997,415.278 186.713,421.994 194.997,421.994 C203.281,421.994 209.997,415.278 209.997,406.994 L209.997,376.994 C209.997,368.71 203.281,361.994 194.997,361.994 Z" id="Path"></path>
                        <path d="M254.997,271.994 C246.713,271.994 239.997,278.71 239.997,286.994 L239.997,316.994 C239.997,325.278 246.713,331.994 254.997,331.994 C263.281,331.994 269.997,325.278 269.997,316.994 L269.997,286.994 C269.997,278.71 263.281,271.994 254.997,271.994 Z" id="Path"></path>
                    </g>
                    <line x1="590.5" y1="557.5" x2="1824.5" y2="1791.5" id="Line" stroke="#FFFFFF" stroke-width="20" stroke-linecap="square"></line>
                    <line x1="590.5" y1="557.5" x2="1824.5" y2="1791.5" id="Line-Copy" stroke="#FFFFFF" stroke-width="20" stroke-linecap="square" transform="translate(1207.500000, 1174.500000) scale(-1, 1) translate(-1207.500000, -1174.500000) "></line>
                    <circle id="Oval" stroke="#FFFFFF" stroke-width="40" cx="1170.5" cy="1170.5" r="1170.5"></circle>
                </g>
                <g id="Group-3" transform="translate(0.353516, 2515.146484)" fill="#FFFFFF" fill-rule="nonzero">
                    <path d="M84.2285156,599.853516 C94.2382813,599.853516 99.2431641,594.848633 99.2431641,584.838867 L99.2431641,584.838867 L99.2431641,247.192383 L104.370117,247.192383 L178.710938,586.303711 C180.908203,595.336914 186.401367,599.853516 195.19043,599.853516 L195.19043,599.853516 L231.811523,599.853516 C240.600586,599.853516 246.09375,595.336914 248.291016,586.303711 L248.291016,586.303711 L322.631836,247.192383 L327.758789,247.192383 L327.758789,584.838867 C327.758789,594.848633 332.763672,599.853516 342.773438,599.853516 L342.773438,599.853516 L412.719727,599.853516 C422.729492,599.853516 427.734375,594.848633 427.734375,584.838867 L427.734375,584.838867 L427.734375,15.0146484 C427.734375,5.00488281 422.729492,0 412.719727,0 L412.719727,0 L313.476563,0 C304.6875,0 299.194336,4.39453125 296.99707,13.1835938 L296.99707,13.1835938 L213.867188,386.71875 L130.737305,13.1835938 C128.540039,4.39453125 123.046875,0 114.257813,0 L114.257813,0 L15.0146484,0 C5.00488281,0 6.82121026e-13,5.00488281 6.82121026e-13,15.0146484 L6.82121026e-13,15.0146484 L6.82121026e-13,584.838867 C6.82121026e-13,594.848633 5.00488281,599.853516 15.0146484,599.853516 L15.0146484,599.853516 L84.2285156,599.853516 Z M703.721401,599.853516 C713.731166,599.853516 718.736049,594.848633 718.736049,584.838867 L718.736049,584.838867 L718.736049,403.198242 L856.065151,92.2851562 C857.041713,89.84375 857.529994,87.6464844 857.529994,85.6933594 C857.529994,83.4960938 856.919643,81.5429688 855.69894,79.8339844 C853.501674,76.4160156 849.595424,74.7070312 843.98019,74.7070312 L843.98019,74.7070312 L768.906948,74.7070312 C760.606166,74.7070312 754.868862,78.7353516 751.695034,86.7919922 L751.695034,86.7919922 L667.832729,279.785156 L583.604213,86.7919922 C580.430385,78.7353516 574.69308,74.7070312 566.392299,74.7070312 L566.392299,74.7070312 L491.319057,74.7070312 C485.703823,74.7070312 481.797573,76.4160156 479.600307,79.8339844 C478.379604,81.5429688 477.769252,83.4350586 477.769252,85.5102539 C477.769252,87.5854492 478.379604,89.84375 479.600307,92.2851562 L479.600307,92.2851562 L616.563198,403.198242 L616.563198,584.838867 C616.563198,594.848633 621.56808,599.853516 631.577846,599.853516 L631.577846,599.853516 L703.721401,599.853516 Z M1188.08245,599.853516 C1196.13909,599.853516 1200.16741,595.825195 1200.16741,587.768555 L1200.16741,512.695312 C1200.16741,504.882812 1196.13909,500.976562 1188.08245,500.976562 L1009.73772,500.976562 L1009.73772,11.71875 C1009.73772,3.90625 1005.7094,0 997.652762,0 L919.649833,0 C911.593192,0 907.564872,3.90625 907.564872,11.71875 L907.564872,587.768555 C907.564872,595.825195 911.593192,599.853516 919.649833,599.853516 L1188.08245,599.853516 Z M1472.49233,599.853516 C1507.89272,599.853516 1534.74819,590.698242 1553.05873,572.387695 C1571.36928,554.077148 1580.52455,527.22168 1580.52455,491.821289 L1580.52455,491.821289 L1580.52455,182.739258 C1580.52455,147.338867 1571.36928,120.483398 1553.05873,102.172852 C1534.74819,83.8623047 1507.89272,74.7070312 1472.49233,74.7070312 L1472.49233,74.7070312 L1388.26381,74.7070312 C1352.86342,74.7070312 1326.00795,83.8623047 1307.69741,102.172852 C1289.38686,120.483398 1280.23159,147.338867 1280.23159,182.739258 L1280.23159,182.739258 L1280.23159,491.821289 C1280.23159,527.22168 1289.38686,554.077148 1307.69741,572.387695 C1326.00795,590.698242 1352.86342,599.853516 1388.26381,599.853516 L1388.26381,599.853516 L1472.49233,599.853516 Z M1456.01284,503.173828 L1408.0392,503.173828 C1388.01967,503.173828 1378.00991,493.164062 1378.00991,473.144531 L1378.00991,473.144531 L1378.00991,201.782227 C1378.00991,181.762695 1388.01967,171.75293 1408.0392,171.75293 L1408.0392,171.75293 L1456.01284,171.75293 C1476.03237,171.75293 1486.04213,181.762695 1486.04213,201.782227 L1486.04213,201.782227 L1486.04213,473.144531 C1486.04213,493.164062 1476.03237,503.173828 1456.01284,503.173828 L1456.01284,503.173828 Z M1853.58189,599.853516 C1888.494,599.853516 1915.2274,590.637207 1933.78209,572.20459 C1952.33677,553.771973 1961.61412,526.977539 1961.61412,491.821289 L1961.61412,491.821289 L1961.61412,410.888672 C1961.61412,407.226562 1960.51549,404.296875 1958.31822,402.099609 C1956.12095,399.902344 1953.19127,398.803711 1949.52916,398.803711 L1949.52916,398.803711 L1878.85045,398.803711 C1871.03795,398.803711 1867.1317,402.832031 1867.1317,410.888672 L1867.1317,410.888672 L1867.1317,474.609375 C1867.1317,494.628906 1857.12193,504.638672 1837.1024,504.638672 L1837.1024,504.638672 L1789.12877,504.638672 C1769.10924,504.638672 1759.09947,494.628906 1759.09947,474.609375 L1759.09947,474.609375 L1759.09947,202.514648 C1759.09947,182.495117 1769.10924,172.485352 1789.12877,172.485352 L1789.12877,172.485352 L1837.1024,172.485352 C1857.12193,172.485352 1867.1317,182.495117 1867.1317,202.514648 L1867.1317,202.514648 L1867.1317,263.671875 C1867.1317,271.728516 1871.03795,275.756836 1878.85045,275.756836 L1878.85045,275.756836 L1949.52916,275.756836 C1953.19127,275.756836 1956.12095,274.658203 1958.31822,272.460938 C1960.51549,270.263672 1961.61412,267.333984 1961.61412,263.671875 L1961.61412,263.671875 L1961.61412,182.739258 C1961.61412,147.583008 1952.33677,120.788574 1933.78209,102.355957 C1915.2274,83.9233398 1888.494,74.7070312 1853.58189,74.7070312 L1853.58189,74.7070312 L1769.35338,74.7070312 C1733.95299,74.7070312 1706.97545,83.8623047 1688.42076,102.172852 C1669.86607,120.483398 1660.58873,147.338867 1660.58873,182.739258 L1660.58873,182.739258 L1660.58873,491.821289 C1660.58873,527.22168 1669.86607,554.077148 1688.42076,572.387695 C1706.97545,590.698242 1733.95299,599.853516 1769.35338,599.853516 L1769.35338,599.853516 L1853.58189,599.853516 Z M2095.87751,599.853516 C2102.46931,599.853516 2106.49763,596.313477 2107.96247,589.233398 L2107.96247,589.233398 L2131.03376,494.750977 L2272.02497,494.750977 L2296.19489,589.233398 C2297.65974,596.313477 2301.56599,599.853516 2307.91364,599.853516 L2307.91364,599.853516 L2380.78962,599.853516 C2388.35798,599.853516 2392.14216,597.045898 2392.14216,591.430664 C2392.14216,590.209961 2391.89802,588.745117 2391.40974,587.036133 L2391.40974,587.036133 L2266.89802,85.3271484 C2265.43318,78.2470703 2261.16071,74.7070312 2254.08064,74.7070312 L2254.08064,74.7070312 L2149.71052,74.7070312 C2142.63044,74.7070312 2138.35798,78.2470703 2136.89314,85.3271484 L2136.89314,85.3271484 L2012.38142,587.036133 C2011.89314,588.745117 2011.649,590.332031 2011.649,591.796875 C2011.649,597.167969 2015.18903,599.853516 2022.26911,599.853516 L2022.26911,599.853516 L2095.87751,599.853516 Z M2248.95368,407.958984 L2154.47126,407.958984 L2201.71247,203.979492 L2248.95368,407.958984 Z M2707.67997,599.853516 C2715.73661,599.853516 2719.76493,595.825195 2719.76493,587.768555 L2719.76493,512.695312 C2719.76493,504.882812 2715.73661,500.976562 2707.67997,500.976562 L2559.36454,500.976562 L2559.36454,86.7919922 C2559.36454,78.7353516 2555.33622,74.7070312 2547.27958,74.7070312 L2469.27665,74.7070312 C2465.61454,74.7070312 2462.68485,75.8056641 2460.48758,78.0029297 C2458.29032,80.2001953 2457.19169,83.1298828 2457.19169,86.7919922 L2457.19169,587.768555 C2457.19169,595.825195 2461.22001,599.853516 2469.27665,599.853516 L2707.67997,599.853516 Z" id="MyLocal"></path>
                    <path d="M132.398438,1612.85352 C137.276367,1612.85352 141.178711,1611.39014 144.105469,1608.46338 C147.032227,1605.53662 148.495605,1601.63428 148.495605,1596.75635 L148.495605,1596.75635 L148.495605,1278.22754 L336.295898,1278.22754 C347.027344,1278.22754 352.393066,1272.86182 352.393066,1262.13037 L352.393066,1262.13037 L352.393066,1162.13281 C352.393066,1151.72656 347.027344,1146.52344 336.295898,1146.52344 L336.295898,1146.52344 L148.495605,1146.52344 L148.495605,945.552734 L396.294434,945.552734 C401.172363,945.552734 405.074707,944.089355 408.001465,941.162598 C410.928223,938.23584 412.391602,934.333496 412.391602,929.455566 L412.391602,929.455566 L412.391602,829.458008 C412.391602,819.051758 407.025879,813.848633 396.294434,813.848633 L396.294434,813.848633 L28.4985352,813.848633 C17.7670898,813.848633 12.4013672,819.051758 12.4013672,829.458008 L12.4013672,829.458008 L12.4013672,1596.75635 C12.4013672,1607.48779 17.7670898,1612.85352 28.4985352,1612.85352 L28.4985352,1612.85352 L132.398438,1612.85352 Z M1018.2373,1612.85352 C1065.39062,1612.85352 1101.16211,1600.65869 1125.55176,1576.26904 C1149.94141,1551.87939 1162.13623,1516.10791 1162.13623,1468.95459 L1162.13623,1468.95459 L1162.13623,957.747559 C1162.13623,910.594238 1149.94141,874.822754 1125.55176,850.433105 C1101.16211,826.043457 1065.39062,813.848633 1018.2373,813.848633 L1018.2373,813.848633 L906.044922,813.848633 C858.891602,813.848633 823.120117,826.043457 798.730469,850.433105 C774.34082,874.822754 762.145996,910.594238 762.145996,957.747559 L762.145996,957.747559 L762.145996,1468.95459 C762.145996,1516.10791 774.34082,1551.87939 798.730469,1576.26904 C823.120117,1600.65869 858.891602,1612.85352 906.044922,1612.85352 L906.044922,1612.85352 L1018.2373,1612.85352 Z M992.87207,1484.07617 L935.3125,1484.07617 C908.646484,1484.07617 895.313477,1470.74316 895.313477,1444.07715 L895.313477,1444.07715 L895.313477,982.625 C895.313477,955.958984 908.646484,942.625977 935.3125,942.625977 L935.3125,942.625977 L992.87207,942.625977 C1019.53809,942.625977 1032.87109,955.958984 1032.87109,982.625 L1032.87109,982.625 L1032.87109,1444.07715 C1032.87109,1470.74316 1019.53809,1484.07617 992.87207,1484.07617 L992.87207,1484.07617 Z M1797.7373,1612.85352 C1844.89062,1612.85352 1880.66211,1600.65869 1905.05176,1576.26904 C1929.44141,1551.87939 1941.63623,1516.10791 1941.63623,1468.95459 L1941.63623,1468.95459 L1941.63623,957.747559 C1941.63623,910.594238 1929.44141,874.822754 1905.05176,850.433105 C1880.66211,826.043457 1844.89062,813.848633 1797.7373,813.848633 L1797.7373,813.848633 L1685.54492,813.848633 C1638.3916,813.848633 1602.62012,826.043457 1578.23047,850.433105 C1553.84082,874.822754 1541.646,910.594238 1541.646,957.747559 L1541.646,957.747559 L1541.646,1468.95459 C1541.646,1516.10791 1553.84082,1551.87939 1578.23047,1576.26904 C1602.62012,1600.65869 1638.3916,1612.85352 1685.54492,1612.85352 L1685.54492,1612.85352 L1797.7373,1612.85352 Z M1772.37207,1484.07617 L1714.8125,1484.07617 C1688.14648,1484.07617 1674.81348,1470.74316 1674.81348,1444.07715 L1674.81348,1444.07715 L1674.81348,982.625 C1674.81348,955.958984 1688.14648,942.625977 1714.8125,942.625977 L1714.8125,942.625977 L1772.37207,942.625977 C1799.03809,942.625977 1812.37109,955.958984 1812.37109,982.625 L1812.37109,982.625 L1812.37109,1444.07715 C1812.37109,1470.74316 1799.03809,1484.07617 1772.37207,1484.07617 L1772.37207,1484.07617 Z M2577.2373,1612.85352 C2624.39062,1612.85352 2660.16211,1600.65869 2684.55176,1576.26904 C2708.94141,1551.87939 2721.13623,1516.10791 2721.13623,1468.95459 L2721.13623,1468.95459 L2721.13623,958.723145 C2721.13623,911.569824 2708.94141,875.635742 2684.55176,850.920898 C2660.16211,826.206055 2624.39062,813.848633 2577.2373,813.848633 L2577.2373,813.848633 L2337.24316,813.848633 C2326.51172,813.848633 2321.146,819.051758 2321.146,829.458008 L2321.146,829.458008 L2321.146,1596.75635 C2321.146,1607.48779 2326.51172,1612.85352 2337.24316,1612.85352 L2337.24316,1612.85352 L2577.2373,1612.85352 Z M2548.94531,1481.14941 L2457.24023,1481.14941 L2457.24023,945.552734 L2548.94531,945.552734 C2575.61133,945.552734 2588.94434,959.210938 2588.94434,986.527344 L2588.94434,986.527344 L2588.94434,1441.15039 C2588.94434,1467.81641 2575.61133,1481.14941 2548.94531,1481.14941 L2548.94531,1481.14941 Z" id="FOOD"></path>
                </g>
            </g>
        </g>
    </g>
</svg>